<svg width="24" height="22" viewBox="0 0 24 22" fill="none" xmlns="http://www.w3.org/2000/svg">
<path d="M11.8369 19.0438C11.7155 19.0438 11.5971 19.0323 11.4818 19.0094C11.3664 18.9865 11.2527 18.9445 11.1407 18.8834L5.61882 15.9959C5.39474 15.8736 5.21468 15.7065 5.07864 15.4945C4.94259 15.2826 4.87457 15.0448 4.87457 14.7813V10.1063L2.44975 8.84585C2.324 8.77776 2.23253 8.69264 2.17536 8.59049C2.11821 8.48834 2.08963 8.37485 2.08963 8.25002C2.08963 8.12518 2.11821 8.01169 2.17536 7.90954C2.23253 7.8074 2.324 7.72228 2.44975 7.65418L11.1407 3.11668C11.2506 3.05557 11.3636 3.00974 11.4796 2.97918C11.5957 2.94863 11.7148 2.93335 11.8369 2.93335C11.9591 2.93335 12.0782 2.94863 12.1942 2.97918C12.3102 3.00974 12.4232 3.05557 12.5331 3.11668L22.0403 8.04377C22.1684 8.12016 22.2644 8.21157 22.3284 8.31801C22.3925 8.42444 22.4245 8.53927 22.4245 8.66252V14.8271C22.4245 15.0219 22.355 15.1852 22.2162 15.3169C22.0773 15.4487 21.9053 15.5146 21.7 15.5146C21.4948 15.5146 21.3241 15.4487 21.1881 15.3169C21.052 15.1852 20.984 15.0219 20.984 14.8271V9.0521L18.7992 10.1063V14.7813C18.7992 15.0448 18.7312 15.2826 18.5952 15.4945C18.4591 15.7065 18.2791 15.8736 18.055 15.9959L12.5331 18.8834C12.4211 18.9445 12.3074 18.9865 12.1921 19.0094C12.0767 19.0323 11.9583 19.0438 11.8369 19.0438ZM11.8369 12.1917L19.3995 8.25002L11.8369 4.3771L4.32238 8.25002L11.8369 12.1917ZM11.8369 17.6917L17.3588 14.7813V10.9313L12.5331 13.4063C12.4211 13.4674 12.3091 13.5094 12.197 13.5323C12.085 13.5552 11.965 13.5667 11.8369 13.5667C11.7089 13.5667 11.5928 13.5552 11.4888 13.5323C11.3848 13.5094 11.2767 13.4674 11.1647 13.4063L6.31505 10.8854V14.7813L11.8369 17.6917Z" fill="url(#paint0_linear_32_190)"/>
<defs>
<linearGradient id="paint0_linear_32_190" x1="12.257" y1="2.93335" x2="12.257" y2="19.0438" gradientUnits="userSpaceOnUse">
<stop stop-color="#D9D2FF"/>
<stop offset="1" stop-color="#74C4DD"/>
</linearGradient>
</defs>
</svg>
