<svg width="36" height="41" viewBox="0 0 36 41" fill="none" xmlns="http://www.w3.org/2000/svg">
<path d="M18.0537 8.00448C17.0482 8.00448 16.1851 7.6215 15.4644 6.85555C14.7438 6.0896 14.3835 5.17224 14.3835 4.10347C14.3835 3.0347 14.7438 2.11733 15.4644 1.35138C16.1851 0.58543 17.0482 0.202454 18.0537 0.202454C19.0593 0.202454 19.9224 0.58543 20.643 1.35138C21.3637 2.11733 21.724 3.0347 21.724 4.10347C21.724 5.17224 21.3637 6.0896 20.643 6.85555C19.9224 7.6215 19.0593 8.00448 18.0537 8.00448ZM14.3332 40.8157C13.8974 40.8157 13.5371 40.6643 13.2522 40.3615C12.9673 40.0587 12.8248 39.6757 12.8248 39.2126V14.4171C10.9813 14.239 9.1378 14.0163 7.29428 13.7491C5.45077 13.4819 3.67428 13.1524 1.96484 12.7605C1.56262 12.6536 1.25257 12.4132 1.0347 12.0391C0.81683 11.665 0.758172 11.2464 0.858728 10.7833C0.959283 10.3558 1.18553 10.0173 1.53748 9.76795C1.88942 9.51857 2.28326 9.44732 2.71901 9.5542C5.19938 10.1598 7.72165 10.5873 10.2858 10.8367C12.85 11.0861 15.4393 11.2108 18.0537 11.2108C20.6682 11.2108 23.2575 11.0861 25.8216 10.8367C28.3858 10.5873 30.9081 10.1598 33.3885 9.5542C33.8242 9.44732 34.2264 9.50967 34.5951 9.74123C34.9638 9.9728 35.1985 10.3202 35.299 10.7833C35.3996 11.2108 35.3325 11.6205 35.0979 12.0124C34.8633 12.4043 34.5448 12.6536 34.1426 12.7605C32.4332 13.1524 30.6567 13.4819 28.8132 13.7491C26.9697 14.0163 25.1261 14.239 23.2826 14.4171V39.2126C23.2826 39.6757 23.1402 40.0587 22.8553 40.3615C22.5704 40.6643 22.21 40.8157 21.7743 40.8157C21.3385 40.8157 20.9782 40.6643 20.6933 40.3615C20.4084 40.0587 20.266 39.6757 20.266 39.2126V27.7767H15.8415V39.2126C15.8415 39.6757 15.6991 40.0587 15.4141 40.3615C15.1292 40.6643 14.7689 40.8157 14.3332 40.8157Z" fill="#350239"/>
</svg>
