<svg width="31" height="30" viewBox="0 0 31 30" fill="none" xmlns="http://www.w3.org/2000/svg">
<path d="M25.3346 26.25C22.7519 26.25 20.1851 25.625 17.6341 24.375C15.0832 23.125 12.7916 21.5 10.7593 19.5C8.72703 17.5 7.0758 15.2448 5.80562 12.7344C4.53545 10.224 3.90036 7.69792 3.90036 5.15625C3.90036 4.75446 4.03645 4.41964 4.30863 4.15178C4.5808 3.88393 4.92103 3.75 5.32931 3.75H9.77492C10.0631 3.75 10.3203 3.84896 10.5467 4.04688C10.7731 4.24479 10.9181 4.51042 10.9816 4.84375L11.839 8.78125C11.8813 9.07292 11.876 9.33854 11.8231 9.57812C11.7702 9.81771 11.659 10.0208 11.4897 10.1875L8.31422 13.3438C9.49972 15.2812 10.8281 16.9688 12.2994 18.4062C13.7707 19.8438 15.4378 21.0625 17.3007 22.0625L20.3174 19C20.5291 18.7708 20.7725 18.6094 21.0477 18.5156C21.3229 18.4219 21.5981 18.4062 21.8733 18.4688L25.6521 19.2812C25.9763 19.3516 26.2425 19.5098 26.4509 19.7559C26.6593 20.002 26.7635 20.2917 26.7635 20.625V24.8438C26.7635 25.2455 26.6274 25.5804 26.3553 25.8482C26.0831 26.1161 25.7428 26.25 25.3346 26.25ZM7.36159 11.625L9.93369 9.0625L9.20334 5.625H5.80562C5.80562 6.4375 5.93264 7.32812 6.18668 8.29688C6.44071 9.26562 6.83235 10.375 7.36159 11.625ZM24.8583 24.375V21.0312L21.5876 20.375L19.079 22.9688C19.9469 23.3646 20.889 23.6875 21.9051 23.9375C22.9212 24.1875 23.9056 24.3333 24.8583 24.375Z" fill="url(#paint0_linear_35_35)"/>
<defs>
<linearGradient id="paint0_linear_35_35" x1="15.3319" y1="3.75" x2="15.3319" y2="26.25" gradientUnits="userSpaceOnUse">
<stop stop-color="#D9D2FF"/>
<stop offset="1" stop-color="#74C4DD"/>
</linearGradient>
</defs>
</svg>
