<svg width="227" height="47" viewBox="0 0 227 47" fill="none" xmlns="http://www.w3.org/2000/svg">
<path d="M13.8718 22.142C16.0697 22.142 18.4335 22.0436 20.9632 21.8467C23.4929 21.6106 25.048 21.4925 25.6286 21.4925C26.2507 21.4925 26.7276 21.6302 27.0593 21.9058C27.4326 22.1813 27.6192 22.5159 27.6192 22.9095C27.6192 24.6415 25.8982 26.0193 22.4561 27.0427C19.0141 28.0662 15.344 28.6566 11.4458 28.8141C9.82845 33.5771 9.01978 36.5884 9.01978 37.848C9.01978 38.5172 9.37227 38.8518 10.0773 38.8518C14.8049 38.8518 19.6776 38.2613 24.6955 37.0804C26.3958 36.6474 27.3704 36.4309 27.6192 36.4309C28.4071 36.4309 28.8011 36.9623 28.8011 38.0251C28.8011 39.4422 27.7021 40.8199 25.5042 42.1583C23.3063 43.4967 20.5485 44.5595 17.2309 45.3467C13.9133 46.134 10.6579 46.5276 7.46464 46.5276C5.55701 46.5276 3.836 45.8585 2.3016 44.5201C0.767199 43.1424 0 41.5482 0 39.7374C0 37.8874 1.05749 33.2818 3.17247 25.9209C5.32893 18.5599 6.46936 13.0096 6.59377 9.2701C6.5523 9.15201 6.53156 8.91583 6.53156 8.56156C6.53156 8.01047 6.6145 7.57747 6.78039 7.26256C7.23656 6.16038 8.5014 5.47152 10.5749 5.19598C12.6484 4.88107 16.3807 4.72362 21.7719 4.72362C30.7295 4.72362 35.2082 5.66834 35.2082 7.55779C35.2082 8.77806 34.1093 9.62437 31.9114 10.0967C30.4184 10.4116 28.3656 10.7069 25.753 10.9824C21.7304 11.4154 18.1432 12.0452 14.9915 12.8719C14.9915 15.5486 14.4938 18.6386 13.4986 22.142H13.8718Z" fill="#350239"/>
<path d="M76.1258 16.5327C77.7431 16.5327 79.0909 17.5561 80.1691 19.603C81.2473 21.6499 81.7865 23.5197 81.7865 25.2123C81.7865 26.9049 81.4339 29.4242 80.729 32.7701C80.0654 36.0766 78.9872 39.2848 77.4943 42.3945C76.0428 45.4648 74.4669 47 72.7667 47C71.3981 47 70.7139 46.1143 70.7139 44.343C70.7139 42.5716 71.253 39.6784 72.3312 35.6633C73.4095 31.6482 73.9486 29.0109 73.9486 27.7513C73.9486 26.4916 73.7412 25.8618 73.3265 25.8618C72.4556 25.8618 71.4189 26.7672 70.2163 28.5779C69.0136 30.3886 67.5622 32.8095 65.8619 35.8405C64.2031 38.8714 63.1663 40.8199 62.7516 41.6859C62.3369 42.5519 61.9844 43.2408 61.6941 43.7525C61.4453 44.2642 61.155 44.7956 60.8232 45.3467C59.4962 47.433 57.7337 47.433 55.5358 45.3467C54.4161 44.2839 53.8562 43.3195 53.8562 42.4535C53.8562 42.2961 54.188 40.8003 54.8515 37.9661C55.5565 35.0925 55.909 31.8254 55.909 28.1646C55.909 26.6294 55.7224 25.8618 55.3492 25.8618C54.8515 25.8618 54.2709 26.3342 53.6074 27.2789C52.9439 28.2236 51.9279 29.9359 50.5594 32.4158C49.1908 34.8957 48.0089 36.9426 47.0136 38.5565C43.5301 44.1855 40.8761 47 39.0514 47C38.139 47 36.9986 46.2718 35.6301 44.8153C34.303 43.3589 33.6395 42.2567 33.6395 41.5088C33.6395 40.7215 34.0957 38.8714 35.008 35.9585C35.9618 33.0063 36.5631 29.8769 36.812 26.5704C37.1023 23.2638 37.3511 20.6855 37.5584 18.8354C37.8073 16.9853 38.3049 16.0603 39.0514 16.0603C40.6272 16.0603 42.1409 16.6901 43.5924 17.9498C45.0853 19.17 45.8317 20.2919 45.8317 21.3153C45.8317 23.6378 44.9401 27.6922 43.1569 33.4786C46.0598 26.9049 48.5066 22.4569 50.4972 20.1344C52.6121 17.7333 54.6442 16.5327 56.5933 16.5327C57.6715 16.5327 58.9986 17.4774 60.5744 19.3668C62.1918 21.2563 63.0004 23.0276 63.0004 24.6809C63.0004 26.2948 62.9797 27.7119 62.9382 28.9322C64.2238 25.8618 66.1729 23.0276 68.7855 20.4296C71.3982 17.8317 73.8449 16.5327 76.1258 16.5327Z" fill="#350239"/>
<path d="M111.666 30.2312C112.412 30.861 112.786 31.4317 112.786 31.9435C112.786 32.4552 112.537 33.518 112.039 35.1319C111.542 36.7458 111.21 38.0054 111.044 38.9108C110.878 39.7768 110.733 40.4657 110.608 40.9774C110.525 41.4891 110.463 41.9024 110.422 42.2173C110.38 42.4929 110.297 42.8472 110.173 43.2802C110.09 43.7132 110.007 44.0674 109.924 44.343C109.883 44.5791 109.8 44.8744 109.675 45.2286C109.592 45.5436 109.489 45.7994 109.364 45.9962C109.24 46.1537 109.095 46.3308 108.929 46.5276C108.68 46.8425 108.265 47 107.685 47C107.104 47 106.378 46.4489 105.508 45.3467C104.678 44.2446 104.056 42.9062 103.641 41.3317C99.7432 45.1106 96.4671 47 93.813 47C92.0298 47 90.1014 46.075 88.0279 44.2249C85.9544 42.3354 84.9176 40.4657 84.9176 38.6156C84.9176 36.7261 85.8092 34.0494 87.5924 30.5854C89.3757 27.1214 91.8017 23.9133 94.8705 20.9611C97.9807 18.0088 101.05 16.5327 104.077 16.5327C105.819 16.5327 107.83 17.4971 110.111 19.4259C112.392 21.3547 113.532 23.126 113.532 24.74C113.532 26.3145 112.91 28.1449 111.666 30.2312ZM93.5642 39.5603C95.223 39.5603 97.4209 38.4975 100.158 36.3719C102.936 34.2069 104.657 31.4908 105.321 28.2236C105.362 27.7513 105.715 27.4757 106.378 27.397C106.254 25.1533 105.86 24.0314 105.197 24.0314C103.538 24.0314 101.672 25.0549 99.5981 27.1018C97.566 29.1487 95.8865 31.3333 94.5594 33.6558C93.2739 35.9782 92.6311 37.6905 92.6311 38.7927C92.6311 39.1076 92.6726 39.3241 92.7555 39.4422C92.8799 39.5209 93.1495 39.5603 93.5642 39.5603Z" fill="#350239"/>
<path d="M139.83 16.5327C141.987 16.5327 143.874 17.4577 145.491 19.3078C147.15 21.1185 147.979 23.067 147.979 25.1533C147.979 28.4992 147.399 32.0025 146.238 35.6633C145.118 39.2848 143.874 42.0796 142.505 44.0477C141.178 46.0159 139.81 47 138.4 47C137.031 47 136.347 46.075 136.347 44.2249C136.347 42.8078 137.031 39.9539 138.4 35.6633C139.436 32.1206 139.955 29.5817 139.955 28.0465C139.955 26.5113 139.747 25.7437 139.333 25.7437C138.794 25.7437 138.255 25.9996 137.715 26.5113C137.218 27.023 136.803 27.4757 136.471 27.8693C136.14 28.263 135.746 28.7747 135.289 29.4045C134.875 29.995 134.501 30.5461 134.17 31.0578C133.879 31.5302 133.485 32.16 132.988 32.9472C132.532 33.6951 132.158 34.325 131.868 34.8367C131.578 35.309 131.205 35.9389 130.748 36.7261C126.892 43.5754 123.864 47 121.666 47C120.796 47 119.697 46.2915 118.37 44.8744C117.042 43.4179 116.379 42.3551 116.379 41.6859C116.379 41.2529 116.669 40.3279 117.25 38.9108C117.872 37.4544 118.307 36.3522 118.556 35.6043C118.846 34.817 119.075 33.9904 119.24 33.1244C119.448 32.2584 119.614 31.3333 119.738 30.3493C119.862 29.3258 119.945 28.5385 119.987 27.9874C120.07 27.4363 120.153 26.5704 120.236 25.3894C120.609 20.2722 120.92 17.438 121.169 16.8869C121.459 16.3358 121.77 16.0603 122.102 16.0603C123.678 16.0603 125.191 16.6901 126.643 17.9498C128.094 19.17 128.82 20.2919 128.82 21.3153C128.82 23.7559 128.156 27.2592 126.829 31.8254C129.525 27.3379 131.972 23.6771 134.17 20.843C136.409 17.9694 138.296 16.5327 139.83 16.5327Z" fill="#350239"/>
<path d="M173.217 18.0088C173.548 17.0247 174.212 16.5327 175.207 16.5327C176.203 16.5327 177.343 17.3396 178.629 18.9535C179.956 20.5674 180.619 21.9648 180.619 23.1457C180.619 23.5787 179.665 26.4719 177.758 31.8254C175.85 37.1788 174.378 41.4104 173.341 44.5201C172.76 46.1734 171.786 47 170.417 47C169.588 47 168.883 46.7245 168.302 46.1734C167.763 45.5829 167.494 44.6776 167.494 43.4573C167.494 42.237 167.743 40.505 168.24 38.2613C163.969 44.0871 160.568 47 158.039 47C156.712 47 155.115 46.1931 153.249 44.5791C151.383 42.9259 150.449 41.3317 150.449 39.7965C150.449 36.0176 151.569 31.1956 153.809 25.3304C156.089 19.4652 158.225 16.5327 160.216 16.5327C161.418 16.5327 162.476 17.0444 163.388 18.0678C164.342 19.0913 164.819 20.2132 164.819 21.4334C164.819 21.9058 164.301 23.2245 163.264 25.3894C160.112 31.8844 158.536 36.4703 158.536 39.147C158.536 39.3832 158.64 39.5013 158.847 39.5013C159.469 39.5013 160.63 38.5762 162.331 36.7261C164.072 34.8367 166.001 32.16 168.116 28.696C170.272 25.1926 171.973 21.6302 173.217 18.0088Z" fill="#350239"/>
<path d="M209.503 27.5741C209.503 29.5029 208.114 31.2349 205.335 32.7701C202.598 34.3053 199.778 35.0729 196.875 35.0729C193.972 35.0729 191.588 34.876 189.722 34.4824C189.348 35.5452 189.162 36.608 189.162 37.6709C189.162 38.7337 189.348 39.5013 189.722 39.9736C190.095 40.4066 191.028 40.6231 192.521 40.6231C195.631 40.6231 198.285 40.3476 200.483 39.7965C202.722 39.2454 203.884 38.9699 203.967 38.9699C205.667 38.9699 206.517 39.5013 206.517 40.5641C206.517 42.0992 205.169 43.5557 202.474 44.9334C199.82 46.3111 196.73 47 193.205 47C189.721 47 186.922 45.9569 184.807 43.8706C182.692 41.7843 181.635 39.3241 181.635 36.49C181.635 33.6164 182.506 30.6248 184.247 27.5151C186.031 24.4054 188.249 21.8074 190.903 19.7211C193.557 17.5955 196.191 16.5327 198.803 16.5327C201.458 16.5327 203.904 17.7726 206.144 20.2525C208.383 22.693 209.503 25.1336 209.503 27.5741ZM202.287 26.6294C202.287 26.2358 201.852 25.665 200.981 24.9171C200.11 24.1692 199.28 23.7952 198.492 23.7952C197.746 23.7952 196.771 24.3266 195.569 25.3894C194.366 26.4129 193.226 27.7513 192.148 29.4045C192.521 29.4439 193.06 29.4636 193.765 29.4636C199.446 29.4636 202.287 28.5188 202.287 26.6294Z" fill="#350239"/>
<path d="M220.779 0C221.775 0 223.06 0.865996 224.636 2.59799C226.212 4.32998 227 5.98325 227 7.55779C227 9.13233 226.751 11.9468 226.254 16.0013C225.756 20.0163 225.238 23.2245 224.698 25.6256C221.256 39.8752 218.851 47 217.483 47C216.57 47 215.43 46.3111 214.061 44.9334C212.734 43.5163 212.071 42.3551 212.071 41.4497C212.071 41.371 212.631 39.3241 213.75 35.309C214.87 31.294 215.99 26.1374 217.109 19.8392C218.271 13.5017 218.851 7.45938 218.851 1.71231C218.851 0.57077 219.494 0 220.779 0Z" fill="#350239"/>
</svg>
