<svg width="31" height="30" viewBox="0 0 31 30" fill="none" xmlns="http://www.w3.org/2000/svg">
<path d="M4.53545 25C4.02738 25 3.58282 24.8125 3.20177 24.4375C2.82071 24.0625 2.63019 23.625 2.63019 23.125V6.875C2.63019 6.375 2.82071 5.9375 3.20177 5.5625C3.58282 5.1875 4.02738 5 4.53545 5H26.1284C26.6365 5 27.0811 5.1875 27.4621 5.5625C27.8432 5.9375 28.0337 6.375 28.0337 6.875V23.125C28.0337 23.625 27.8432 24.0625 27.4621 24.4375C27.0811 24.8125 26.6365 25 26.1284 25H4.53545ZM26.1284 8.59375L15.84 15.2188C15.7553 15.2604 15.6759 15.2969 15.6019 15.3281C15.5278 15.3594 15.4378 15.375 15.3319 15.375C15.2261 15.375 15.1361 15.3594 15.062 15.3281C14.9879 15.2969 14.9086 15.2604 14.8239 15.2188L4.53545 8.59375V23.125H26.1284V8.59375ZM15.3319 13.6875L26.0014 6.875H4.69422L15.3319 13.6875ZM4.53545 8.8125V7.58384V7.60672V6.875V7.59375V7.56525V8.8125Z" fill="url(#paint0_linear_35_33)"/>
<defs>
<linearGradient id="paint0_linear_35_33" x1="15.3319" y1="5" x2="15.3319" y2="25" gradientUnits="userSpaceOnUse">
<stop stop-color="#D9D2FF"/>
<stop offset="1" stop-color="#74C4DD"/>
</linearGradient>
</defs>
</svg>
