<svg width="24" height="22" viewBox="0 0 24 22" fill="none" xmlns="http://www.w3.org/2000/svg">
<path d="M13.0853 20.1667C12.7172 20.1667 12.4491 20.0521 12.2811 19.823C12.113 19.5938 12.093 19.3112 12.221 18.975L15.7502 10.0375C15.8463 9.7931 16.0223 9.58685 16.2784 9.41879C16.5345 9.25073 16.7986 9.16671 17.0707 9.16671C17.3428 9.16671 17.6108 9.25073 17.8749 9.41879C18.139 9.58685 18.3191 9.7931 18.4151 10.0375L22.0163 18.8834C22.1604 19.2348 22.1444 19.5365 21.9683 19.7886C21.7923 20.0407 21.4962 20.1667 21.08 20.1667C20.904 20.1667 20.7359 20.1132 20.5758 20.0063C20.4158 19.8993 20.3038 19.7618 20.2397 19.5938L19.4475 17.2792H14.8379L13.9256 19.6167C13.8616 19.7695 13.7496 19.8993 13.5895 20.0063C13.4294 20.1132 13.2614 20.1667 13.0853 20.1667ZM15.3661 15.675H18.7752L17.0947 11.2292H17.0467L15.3661 15.675ZM7.27537 7.83754C7.51545 8.23476 7.77954 8.62053 8.06764 8.99483C8.35574 9.36914 8.66784 9.7549 9.00396 10.1521C9.7242 9.43407 10.3244 8.68928 10.8046 7.91775C11.2847 7.14622 11.6929 6.34032 12.029 5.50004H2.25769C1.98559 5.50004 1.75752 5.41219 1.57346 5.2365C1.38939 5.0608 1.29736 4.8431 1.29736 4.58337C1.29736 4.32365 1.38939 4.10594 1.57346 3.93025C1.75752 3.75455 1.98559 3.66671 2.25769 3.66671H8.01962V2.75004C8.01962 2.49032 8.11166 2.27261 8.29572 2.09692C8.47978 1.92122 8.70786 1.83337 8.97995 1.83337C9.25204 1.83337 9.48012 1.92122 9.66418 2.09692C9.84824 2.27261 9.94027 2.49032 9.94027 2.75004V3.66671H15.7022C15.9743 3.66671 16.2024 3.75455 16.3864 3.93025C16.5705 4.10594 16.6625 4.32365 16.6625 4.58337C16.6625 4.8431 16.5705 5.0608 16.3864 5.2365C16.2024 5.41219 15.9743 5.50004 15.7022 5.50004H13.9496C13.5975 6.55421 13.1293 7.58928 12.5451 8.60525C11.9609 9.62122 11.2447 10.5875 10.3964 11.5042L12.7492 13.773L12.029 15.6292L8.97995 12.8334L4.82655 16.798C4.65049 16.966 4.43442 17.05 4.17833 17.05C3.92225 17.05 3.70617 16.9584 3.53011 16.775C3.33805 16.607 3.24202 16.4007 3.24202 16.1563C3.24202 15.9118 3.33805 15.698 3.53011 15.5146L7.75554 11.4813C7.3394 11.0077 6.94726 10.5302 6.57914 10.049C6.21102 9.56775 5.8749 9.07504 5.5708 8.57087C5.37874 8.23476 5.36273 7.94448 5.52278 7.70004C5.68284 7.4556 5.97094 7.33337 6.38707 7.33337C6.56313 7.33337 6.73519 7.38303 6.90325 7.48233C7.07131 7.58164 7.19535 7.70004 7.27537 7.83754Z" fill="url(#paint0_linear_32_194)"/>
<defs>
<linearGradient id="paint0_linear_32_194" x1="11.7055" y1="1.83337" x2="11.7055" y2="20.1667" gradientUnits="userSpaceOnUse">
<stop stop-color="#D9D2FF"/>
<stop offset="1" stop-color="#74C4DD"/>
</linearGradient>
</defs>
</svg>
