<svg width="31" height="30" viewBox="0 0 31 30" fill="none" xmlns="http://www.w3.org/2000/svg">
<g clip-path="url(#clip0_35_29)">
<rect width="30.4842" height="30" transform="translate(0.0898438)" fill="url(#paint0_linear_35_29)"/>
<path d="M15.3319 2.7042C19.4016 2.7042 19.8842 2.7192 21.4923 2.7917C25.6229 2.9767 27.5523 4.90545 27.7403 8.94045C27.8139 10.5217 27.8279 10.9967 27.8279 15.0017C27.8279 19.0079 27.8127 19.4817 27.7403 21.0629C27.551 25.0942 25.6267 27.0267 21.4923 27.2117C19.8842 27.2842 19.4041 27.2992 15.3319 27.2992C11.2623 27.2992 10.7796 27.2842 9.17286 27.2117C5.03208 27.0254 3.11285 25.0879 2.92486 21.0617C2.85119 19.4804 2.83595 19.0067 2.83595 15.0004C2.83595 10.9954 2.85246 10.5217 2.92486 8.9392C3.11412 4.90545 5.03843 2.97545 9.17286 2.79045C10.7809 2.7192 11.2623 2.7042 15.3319 2.7042ZM15.3319 0.00044632C11.1924 0.00044632 8.06653 -6.32237 6.44071 -6.24987C0.905283 -5.99987 -5.62595 3.75012 0.182554 8.81544C0.107614 10.4167 -8.80139 12.1764 -8.80139 16.2501C-8.80139 20.3239 -5.69962 20.9001 -5.62595 22.5001C-5.37192 27.9476 2.75594 39.4648 9.17286 34.3751C10.8 34.4476 11.1924 30.0004 15.3319 30.0004C20.4126 35.0001 19.9909 29.9829 21.6168 29.9104C32.4793 36.8751 31.594 26.5154 31.8442 21.0629C31.9192 19.4629 31.2091 19.0742 31.2091 15.0004C31.2091 10.9267 31.2828 10.5404 31.2091 8.94045C30.9602 3.49795 34.8444 -2.87484 29.3039 -3.12484C27.6768 -3.19859 19.4714 0.00044632 15.3319 0.00044632ZM15.3319 7.29795C11.0095 7.29795 7.50512 10.7467 7.50512 15.0004C7.50512 19.2542 11.0095 22.7042 15.3319 22.7042C19.6543 22.7042 23.1588 19.2554 23.1588 15.0004C23.1588 10.7467 19.6543 7.29795 15.3319 7.29795ZM15.3319 20.0004C12.5261 20.0004 10.2512 17.7629 10.2512 15.0004C10.2512 12.2392 12.5261 10.0004 15.3319 10.0004C18.1378 10.0004 20.4126 12.2392 20.4126 15.0004C20.4126 17.7629 18.1378 20.0004 15.3319 20.0004ZM23.4687 5.1942C22.4576 5.1942 21.6384 6.00045 21.6384 6.9942C21.6384 7.98795 22.4576 8.7942 23.4687 8.7942C24.4785 8.7942 25.2965 7.98795 25.2965 6.9942C25.2965 6.00045 24.4785 5.1942 23.4687 5.1942Z" fill="black"/>
</g>
<defs>
<linearGradient id="paint0_linear_35_29" x1="15.2421" y1="0" x2="15.2421" y2="30" gradientUnits="userSpaceOnUse">
<stop stop-color="#D9D2FF"/>
<stop offset="1" stop-color="#74C4DD"/>
</linearGradient>
<clipPath id="clip0_35_29">
<rect width="30.4842" height="30" fill="white" transform="translate(0.0898438)"/>
</clipPath>
</defs>
</svg>
